<?xml version="1.0" encoding="UTF-8"?>
<svg id="Layer_1" xmlns="http://www.w3.org/2000/svg" viewBox="0 0 1612 455">
  <defs>
    <style>
      .cls-1 {
        fill: #b37320;
      }

      .cls-1, .cls-2 {
        fill-rule: evenodd;
      }

      .cls-3 {
        fill: #fe8f00;
      }

      .cls-4 {
        fill: #8f5a14;
      }

      .cls-5, .cls-2 {
        fill: #bd7c28;
      }
    </style>
  </defs>
  <rect class="cls-5" x="78" y="142.78" width="1447.07" height="40.9"/>
  <path class="cls-2" d="M146.72,183.68h1309.62v43.24h-.03c-9.77,0-17.76,7.99-17.76,17.76v112.98c0,9.77,7.99,17.76,17.76,17.76h.03v26.78h-132.73c-17.76-65.21-77.66-113.52-148.3-113.52H427.75c-70.64,0-130.53,48.31-148.3,113.52h-132.73v-26.78h.03c9.77,0,17.76-7.99,17.76-17.76v-112.98c0-9.77-7.99-17.76-17.76-17.76h-.03v-43.24Z"/>
  <path class="cls-1" d="M1456.34,205.12v21.8h-.03c-9.77,0-17.76,7.99-17.76,17.76v112.98c0,9.77,7.99,17.76,17.76,17.76h.03v26.78h-132.73c-17.76-65.21-77.66-113.52-148.3-113.52h-91.73v-83.56h372.76Z"/>
  <rect class="cls-4" x="146.72" y="183.68" width="1309.62" height="21.44"/>
  <path class="cls-3" d="M28.26,87.37h1546.54c5.92,0,10.73,4.81,10.73,10.73v33.95c0,5.92-4.81,10.73-10.73,10.73H28.27c-5.92,0-10.73-4.81-10.73-10.73v-33.95c0-5.92,4.81-10.73,10.73-10.73Z"/>
</svg>