<svg fill="#000000" xmlns="http://www.w3.org/2000/svg"  viewBox="0 0 24 24" width="24px" height="24px"><path d="M 11.984375 2 A 1.0001 1.0001 0 0 0 11.292969 2.2929688 L 2.2929688 11.292969 A 1.0001 1.0001 0 0 0 3 13 L 4 13 L 4 19 C 4 20.093063 4.9069372 21 6 21 L 9 21 A 1.0001 1.0001 0 0 0 10 20 L 10 13 L 14 13 L 14 20 A 1.0001 1.0001 0 0 0 15 21 L 18 21 C 19.093063 21 20 20.093063 20 19 L 20 13 L 21 13 A 1.0001 1.0001 0 0 0 21.707031 11.292969 L 12.707031 2.2929688 A 1.0001 1.0001 0 0 0 11.984375 2 z M 12 4.4140625 L 14.585938 7 L 9.4140625 7 L 12 4.4140625 z M 7.4140625 9 L 16.585938 9 L 18.585938 11 L 5.4140625 11 L 7.4140625 9 z M 6 13 L 8 13 L 8 15 L 6 15 L 6 13 z M 16 13 L 18 13 L 18 15 L 16 15 L 16 13 z M 6 17 L 8 17 L 8 19 L 6 19 L 6 17 z M 16 17 L 18 17 L 18 19 L 16 19 L 16 17 z"/></svg>