<?xml version="1.0" encoding="UTF-8"?>
<svg id="Layer_1" xmlns="http://www.w3.org/2000/svg" viewBox="0 0 792 612">
  <defs>
    <style>
      .cls-1 {
        fill: #eb2024;
      }

      .cls-2 {
        fill: #9a5325;
      }

      .cls-3 {
        fill: #f9a509;
      }

      .cls-4 {
        fill: #f87e12;
      }

      .cls-5 {
        fill: #f3f3f3;
      }
    </style>
  </defs>
  <path class="cls-2" d="M296.9,281.86c-.08-.29-.16-.59-.23-.89-.17-.01-.33-.03-.5-.04.02.27.04.53.06.79l-.02.03c.23.04.46.07.69.11ZM301.35,282.56l-.1.14.13-.14h-.03ZM302.91,284.11l-.16.14.17-.12s0-.01-.01-.02ZM413.91,191.49c-.19.13-.37.25-.54.35.36.2.73.41,1.09.63-.18-.33-.35-.67-.55-.98Z"/>
  <path class="cls-3" d="M434.95,301.25c2.41-4.25,5-8.41,7.21-12.77,5.05-9.95,7.52-20.53,7.39-31.73-.03-2.87.31-5.75.47-8.63.41-.23.82-.47,1.23-.7.26-.09.52-.18.77-.27.35-.27.7-.53,1.04-.8.15-.08.3-.15.45-.23,9.3-5.39,19.1-10.07,26.4-18.35.75-.85,1.54-1.66,2.31-2.5h.15s.08-.11.08-.11c.26-.29.53-.59.79-.88l.14.02s.07-.12.07-.12c.56-.58,1.11-1.16,1.67-1.74,0,0-.03.03-.03.03,2.29-1.09,4.57-2.17,6.86-3.26.35-.07.7-.13,1.05-.2,3.27-.51,6.55-.93,9.8-1.53,7.06-1.3,7.71-.67,7.06,6.31-.54,5.84-.78,11.71-1.16,17.57.21.09.42.17.63.26.43-.76.95-1.48,1.28-2.28,2.86-6.99,5.7-13.99,8.5-21.01.6-1.51,1.49-2.26,3.18-2.16,3.9.24,7.84.12,11.7.62,7.07.91,14.14,1.97,21.13,3.36,4.85.96,9.57,2.58,14.34,3.9.33.08.66.16.99.25.56.32,1.08.71,1.67.95,7.56,3.09,14.62,6.95,20.34,12.93,5.04,5.28,7.02,11.37,4.66,18.46-.72,2.16-1.95,4.14-2.95,6.2-.17.07-.27.19-.29.37-.17.21-.35.42-.52.63l-.09.09s.06.12.06.12c-.31.42-.63.83-.94,1.25,0,0,.01-.01.01-.01-.38.48-.76.96-1.14,1.44,0,0,.02-.06.02-.06-1.32,1.52-2.65,3.04-3.97,4.57,0,0,.03-.03.03-.03-1.01,1.01-2.02,2.02-3.04,3.02,0,0,.04-.03.04-.03-.45.38-.9.77-1.35,1.15,0,0-.04.02-.04.02-.71.62-1.42,1.24-2.13,1.86,0,0,.06-.03.06-.03-.47.38-.94.75-1.41,1.13,0,0-.02.01-.02.01-.38.31-.76.61-1.14.92,0,0-.21,0-.21,0,0,0-.16.13-.16.13-.34.3-.69.61-1.03.91,0,0,0,0,0,0-.5.34-1.01.67-1.51,1.01-4.49,3.01-8.98,6.01-13.46,9.02-.54.3-1.08.59-1.62.89,0,0-.02-.02-.02-.02-.61.23-1.22.47-1.83.7-2.34.89-4.37,1.3-6.93-.24-7.62-4.58-15.51-8.72-23.29-13.02-.26-.14-.59-.17-1.71-.46.93,1.22,1.42,1.88,1.93,2.52,4.24,5.3,8.52,10.56,12.71,15.89,1.42,1.81,1.13,2.9-.9,3.55-7.51,2.4-14.96,5.07-22.61,6.95-8.54,2.11-17.35,2.64-26.16,2.75-1.91.03-3.9-.24-5.72.17-3.92.88-6.23-1.12-8.32-3.92-3.51-4.69-7.07-9.33-10.62-13.99-.23-.3-.6-.49-.9-.73-.23.11-.45.21-.68.32,2.02,5.71,4.04,11.42,6.18,17.48-3.53-.43-6.66-.6-9.69-1.22-7.12-1.45-14.21-3.06-21.28-4.72-1.9-.45-3.7-1.31-5.54-1.98Z"/>
  <path class="cls-3" d="M304.06,286.24c3.86,8.07,8.76,15.43,15.43,22.22-2.43,1.69-4.66,3.33-6.97,4.83-9.13,5.94-16.93,13.28-23.53,21.94-5.57,7.32-10.18,15.2-13.11,23.91-1.76,5.25-2.8,10.74-4.17,16.11-.2.8-.47,1.58-.71,2.36-5.95,1.71-11.83,3.77-17.88,5.02-6.71,1.39-13.57,2.04-20.37,2.98-1.67.23-2.28-.47-1.87-2.18,1.51-6.3,3-12.6,4.41-18.92.23-1.01.03-2.1.03-3.16-.24-.08-.48-.16-.72-.24-1.27,1.85-2.57,3.69-3.81,5.56-3.94,5.93-7.86,11.86-11.77,17.81-.91,1.38-2.07,2.05-3.75,1.9-8.25-.78-16.58-1.06-24.74-2.41-7.86-1.31-15.59-3.61-22.54-7.75-8.79-5.24-12.24-12.84-8.67-23.18,4.8-13.88,14.79-23.49,25.4-32.62,8.05-6.94,17.16-12.4,26.53-17.43,2.01-1.08,3.33-.76,4.85.6,5.73,5.1,11.49,10.15,17.25,15.2.59.52,1.27.92,2.41,1.02-.32-.68-.59-1.39-.97-2.03-3.48-5.92-6.95-11.85-10.51-17.73-.98-1.61-.84-2.54,1.04-3.14,4.8-1.52,9.51-3.32,14.37-4.59,6.63-1.74,13.3-3.52,20.07-4.51,7.54-1.1,15.19-1.44,22.81-1.81,1.42-.07,2.91,1.24,4.37,1.92,0,0,.04,0,.04,0,1.69,1.67,3.39,3.34,5.08,5l-.02-.04c.86.82,1.73,1.63,2.59,2.45h-.01c.38.41.76.82,1.14,1.23l.17.12c.97,1.2,1.91,2.42,2.94,3.57.25.28.79.32,1.19.47.02-.45.22-.99.04-1.34-.73-1.41-1.57-2.75-2.37-4.12-.4-.99-.79-1.99-1.19-2.98-.12-.2-.23-.4-.35-.61.04-.17-.02-.29-.18-.36-.61-1.02-1.21-2.04-1.82-3.06l.02.02v-2.1h6.95c.66,0,1.32,0,1.98,0,.3.02.6.04.9.06Z"/>
  <path class="cls-1" d="M299.16,238.63c-.63,7.82-1.41,15.64-1.81,23.47-.13,2.63.62,5.33,1.14,7.96.41,2.07,1.14,4.08,1.61,6.14.36,1.57.55,3.19.87,5.14-1.64-.14-3.22-.27-4.79-.4-5.3.24-10.61.36-15.91.74-6.05.43-12.11.9-18.12,1.66-11.09,1.4-21.85,4.23-32.56,7.42-7.29,2.18-14.29,4.85-20.84,8.73-.48.28-1.13.49-1.66.41-.77-.11-1.66-.34-2.19-.84-.21-.2.24-1.38.66-1.91,3.34-4.25,6.75-8.44,10.13-12.66,1.37-1.71,2.7-3.44,4.04-5.16-.15-.16-.29-.32-.44-.48-4.61,2.55-9.23,5.09-13.83,7.66-3.55,1.99-7.11,3.97-10.62,6.04-1.53.9-2.89.88-4.45.07-8.53-4.4-16.43-9.72-23.86-15.81-5.85-4.79-10.88-10.19-14.7-16.76-3.35-5.76-3.88-11.7-.34-17.22,2.32-3.63,5.97-6.41,9.05-9.54.69-.69,1.52-1.24,2.29-1.85,0,0-.02,0-.02,0,.52-.33,1.04-.66,1.55-.99,0,0-.02.02-.02.02,1.32-.84,2.65-1.67,3.97-2.51.32-.19.64-.39.96-.58,1.72-.59,3.43-1.21,5.16-1.76,5.09-1.64,10.16-3.34,15.28-4.86,3.64-1.08,7.36-1.9,11.05-2.84.32-.03.65-.07.97-.1.67-.13,1.35-.27,2.02-.4.33-.04.66-.07.98-.11.66,0,1.32,0,1.97-.03,6.31-.35,12.61-.77,18.92-.99.87-.03,2.27.79,2.57,1.55,3.05,7.64,5.9,15.35,8.87,23.03.22.57.88.98,1.33,1.47.26-.6.76-1.22.73-1.81-.18-3.24-.51-6.46-.74-9.7-.25-3.57-.55-7.14-.63-10.71-.07-2.89.64-3.39,3.42-2.97,1.89.29,3.78.6,5.67.87,16.9,2.46,33.15,7.1,48.59,14.46,1.6.76,2.89,1.68,2.77,3.7.18.71.36,1.41.53,2.12.14.11.27.22.41.33Z"/>
  <path class="cls-4" d="M476.76,379.61c-.67-3.15-1.35-6.31-2.02-9.46-2.23-10.4-6.35-20.02-12.07-28.96-7.85-12.27-17.91-22.28-30.53-29.66-1.41-.82-2.66-1.93-4.11-2.99,1.22-1.78,2.23-3.48,4.64-3.29,11.47,4.28,23.45,6.37,35.5,8.11,3.29.48,6.58,1.41,9.86,1.36,8.2-.12,16.41-.47,24.59-1.12,5.44-.43,10.83-1.55,16.25-2.33.29-.04.61.13,1.18.26-1.99,3.38-3.89,6.62-5.8,9.85.22.2.44.39.66.59,1.6-1.14,3.24-2.22,4.78-3.43,4.42-3.46,8.75-7.05,13.22-10.45,3.2-2.43,4.02-2.3,7.36-.29,10.8,6.5,21.01,13.9,29.92,22.76,7.9,7.85,14.52,16.88,18.08,27.66,3.68,11.14-.94,19.98-12.6,25.13-9.04,3.99-18.61,5.48-28.31,6.34-5.05.45-10.13.41-15.2.6-2.2.08-3.65-.82-4.83-2.79-4.19-6.96-8.57-13.81-12.85-20.71-.47-.76-.74-1.64-1.1-2.47-.41.33-.82.66-1.23.99,1.27,7.77,2.54,15.54,3.89,23.78-13.21-1.59-25.35-4.49-37.01-9.33-.5-.1-1.01-.19-1.51-.29-.25.05-.49.1-.74.16Z"/>
  <path class="cls-3" d="M400.6,480.64c-.63-3.15-1.26-6.3-1.9-9.45-.61-2.99-1.31-5.97-1.78-8.98-.09-.57.64-1.74,1.17-1.87,4.74-1.14,9.52-2.08,14.28-3.12,1.68-.37,2.21.74,2.63,1.96,1.56,4.45,3.08,8.9,4.62,13.35.62,4.42,1.19,8.84,1.87,13.25.39,2.53,1.03,5.02,1.46,7.55.38,2.24,1.75,3.33,3.8,4.09,7.93,2.93,15.82,5.97,23.7,9.03,1.22.47,2.53,1.13,3.35,2.08.83.97,1.5,2.42,1.48,3.65-.02.76-1.34,1.93-2.26,2.18-4.56,1.19-9.15,2.38-13.8,3.1-4.08.64-5.05,1.52-3.92,5.62,1.74,6.32,2.2,12.74,1.78,19.24-.07,1.05-.31,2.15-.74,3.11-1.01,2.25-2.66,3.01-4.56,1.48-3.78-3.03-7.42-6.3-10.73-9.83-3.58-3.82-6.74-8.03-10.02-12.12-1.11-1.39-2.18-1.5-3.87-.92-6.16,2.13-12.39,4.06-18.61,6.03-.54.17-1.15.16-1.73.15-2.58-.02-2.93-.77-2.3-3.23,1.26-4.92,4.15-8.86,7.18-12.74,2.38-3.05,4.84-6.03,7.3-9.01,2.03-2.45,3.17-5.14,2.95-8.41-.36-5.12-.58-10.26-.86-15.38-.17-.27-.34-.54-.5-.81l.03.02Z"/>
  <path class="cls-3" d="M327.89,472.8c1.42-4.31,2.9-8.61,4.25-12.94.57-1.85,1.69-2.58,3.52-2.22,4.62.89,9.25,1.78,13.85,2.77,1.77.38,1.59,1.57,1.22,3.09-1.31,5.37-2.42,10.79-3.6,16.19-.32,2.31-.63,4.62-.95,6.94,0,1-.02,2-.03,3-.02,3.57-.6,7.26.11,10.68.55,2.62,2.4,5.18,4.24,7.27,4.17,4.78,8.35,9.51,11.08,15.3.69,1.46,1.24,3.06,1.45,4.64.33,2.58-.29,3.2-2.91,2.73-3-.54-5.97-1.34-8.89-2.24-3.4-1.04-6.76-2.21-10.08-3.49-2.21-.85-3.64-.22-5.14,1.53-4.92,5.75-9.95,11.41-15.06,16.97-1.43,1.55-3.23,2.83-5.02,3.96-2.11,1.33-4.26.18-4.93-2.17-1.9-6.74-.14-13.3.83-19.89.24-1.64.61-3.26.92-4.89.36-1.89-1.1-2.01-2.28-2.21-3.03-.53-6.11-.78-9.1-1.46-2.56-.59-5.09-1.45-7.5-2.5-2.4-1.04-2.77-2.66-.76-4.35,2.38-1.99,5.06-3.81,7.91-5,6.26-2.62,12.68-4.83,19.07-7.12,3.91-1.4,4.45-2.18,4.98-6.17.82-6.16,1.88-12.3,2.83-18.44Z"/>
  <path class="cls-4" d="M343.29,188.65c-5.04,3.01-10.3,5.71-15.08,9.09-9.34,6.63-16.58,15.22-21.99,25.32-1.09,2.03-1.8,4.27-2.89,6.31-.38.72-1.36,1.12-2.06,1.66-1.22-.71-2.39-1.52-3.66-2.1-12.13-5.46-24.5-10.24-37.6-12.84-3.59-.71-6.44-2.29-8.85-5.05-7.18-8.24-13.42-17.11-18.53-26.77-1.02-1.93-.63-2.77,1.41-3.15,3.35-.63,6.71-1.19,10.06-1.84,3.86-.76,7.71-1.59,11.56-2.39.01-.21.02-.42.03-.64-.74-.24-1.45-.57-2.21-.71-7.92-1.49-15.84-3.04-23.79-4.38-2.78-.47-4.51-1.79-5.46-4.4-.91-2.47-1.98-4.89-2.98-7.33-.15-.5-.3-1-.45-1.5-.17-.51-.34-1.01-.52-1.52-.08-.33-.16-.65-.24-.98-.61-2-1.22-3.99-1.82-5.99-.17-.67-.33-1.34-.5-2-.65-3.51-1.3-7.01-1.94-10.52-.03-.32-.05-.65-.08-.97-.15-1.17-.3-2.34-.45-3.51-.07-1-.13-1.99-.2-2.99.03-2.5.06-5,.09-7.51.04-.33.08-.66.12-.98,1.1-4.63,2.62-9.07,5.65-12.85,0,0-.03.02-.03.02.39-.35.78-.7,1.17-1.06,0,0,.18-.05.18-.05.31-.19.63-.38.94-.56.19-.14.39-.28.58-.41.61-.32,1.21-.63,1.82-.95,2.4-.6,4.8-1.21,7.2-1.81,2.66-.07,5.33-.15,7.99-.22.22,0,.44,0,.66,0,1.94.4,3.87.81,5.81,1.21,2.73.6,5.46,1.19,8.19,1.79,4.26,1.64,8.51,3.28,12.77,4.93,0,0-.02-.01-.02-.01,2.68,1.45,5.37,2.88,8.04,4.34,3.48,1.91,6.94,3.85,10.4,5.78,0,0-.06-.03-.06-.03.86.5,1.73.99,2.59,1.49.35.29.7.59,1.05.88,3.21,2.58,6.49,5.08,9.61,7.77.92.8,1.4,2.11,2.09,3.19-.24,1.01-.48,2.02-.72,3.03-2.64,7.37-5.59,14.64-6.85,22.43.48-.14.68-.39.86-.65,4.17-5.77,8.34-11.54,12.5-17.33,1.18-1.65,2.2-1.85,3.72-.19,12.88,14.12,23.84,29.54,31.9,46.93Z"/>
  <path class="cls-1" d="M449.9,243.26c-.6-.36-1.7-.67-1.74-1.09-.84-8.26-5.51-15.08-8.32-22.59-1.69-4.49-5.27-7.43-8.09-10.97-4.62-5.78-10.41-10.35-16.3-14.78-.7-.53-1.04-1.54-1.54-2.33.55-3.34,1.15-6.67,1.65-10.01,1.18-7.85,2.33-15.7,3.48-23.55.01-.16.03-.32.04-.48.98-1.95,1.85-3.97,2.98-5.83.92-1.51,2.18-2.81,3.28-4.21.19,0,.28-.1.27-.28,1.79-1.99,3.51-4.04,5.41-5.92.63-.62,1.72-.75,2.61-1.11-.02.18.06.26.24.26.75,1.27,1.51,2.55,2.26,3.82,0,0-.02.15-.02.15,0,0,.14.06.14.06.92,1.21,1.85,2.42,2.77,3.62-.03.19.05.33.23.4,1.26,1.68,2.52,3.36,3.79,5.03,0,0,0-.01,0-.01,1.66,2.38,3.33,4.76,4.99,7.14.2-.12.41-.24.61-.37-1.51-4.31-3.02-8.61-4.53-12.92.08-.15.05-.27-.09-.36-1.15-3.8-2.22-7.63-3.48-11.39-.66-1.98-.15-3.28,1.5-4.47,2-1.45,3.84-3.11,5.74-4.68h.16s.04-.16.04-.16c2.54-1.74,5.09-3.48,7.63-5.21,0,0-.04.03-.04.03,1.52-.81,3.01-1.67,4.56-2.42,6.89-3.33,13.74-6.75,20.71-9.89,3.35-1.51,6.96-2.46,10.45-3.66l.72-.11c1.52-.32,3.04-.64,4.57-.95.31-.03.63-.05.94-.08,4.82,0,9.64,0,14.46,0,.41.04.83.09,1.24.13,2.75,1.64,5.5,3.28,8.25,4.92.15.15.3.31.45.46.18.18.36.37.54.55,0,0-.01-.01-.01-.01.17.17.34.34.51.51,0,0-.01-.01-.01-.01,2.49,5.16,3.51,10.62,3.43,16.32-.04,2.38,0,4.77,0,7.16-.04.53-.07,1.07-.11,1.6-.65,3.05-1.42,6.09-1.91,9.17-1.43,8.84-4.66,17.08-8.09,25.27h-.17s-.04.17-.04.17c-9.91,2.01-19.82,4.02-29.73,6.03.6.72,1.13.89,1.68,1,6.57,1.32,13.14,2.64,19.71,3.94,2.45.49,2.77,1.09,1.66,3.39-.51,1.04-1.11,2.04-1.71,3.03-2.1,3.45-4.23,6.9-6.35,10.34-.11.16-.22.32-.32.48-1.34,1.83-2.67,3.66-4.01,5.49-.16.18-.32.35-.48.53-1.08,1.34-2.16,2.69-3.24,4.03l-.18.06s-.02.19-.02.19c-.95,1.08-1.89,2.17-2.84,3.25l-.16.06s0,.17,0,.17c-.22.24-.45.49-.67.73-.35.3-.69.61-1.04.91,0,0,.08-.06.08-.06-.36.35-.72.69-1.08,1.04,0,0,.08-.07.08-.07-.15.24-.29.48-.44.71-1.32,1.32-2.64,2.64-3.95,3.96-.23.13-.46.25-.69.38,0,0,.09-.04.09-.04-.36.35-.73.7-1.09,1.05,0,0,.09-.05.09-.05-.14.23-.29.46-.43.69l-1.67,1.54s-.21.05-.21.05c0,0-.05.21-.05.21-1.21,1.05-2.41,2.09-3.62,3.14,0,0,.03-.02.03-.02-.82.68-1.64,1.36-2.47,2.04,0,0-.01,0-.01,0-2.49,1.76-5.26,1.77-8.08,1.2-2.36-.47-4.69-1.07-7.05-1.56-1.4-.29-2.82-.46-4.23-.68l-.28.68c1.24,1.04,2.47,2.07,3.71,3.11v.14s.15,0,.15,0c1.56,1.39,3.12,2.78,5.11,4.55-3.97,2.48-7.62,4.75-11.26,7.02,0,0-.06.04-.06.04-.38.12-.77.23-1.15.35Z"/>
  <path class="cls-3" d="M408.96,190.38c-.25,0-.51.03-.74-.03-7.13-1.79-8.64-5.76-4.53-11.87,1.1-1.64,2.25-3.25,3.64-5.27-3.58-.45-6.17.98-8.57,2.82-2.42,1.85-4.72,3.86-6.75,5.54-.66-3.7.88-7.94,3.26-11.66,2.35-3.66,5.49-6.81,8.8-10.82-2.99.59-5.53.92-7.97,1.59-9.45,2.58-16.07,8.48-19.49,17.63-1.23,3.29-3.26,4.47-6.44,4.52-7.2.12-14.14,1.75-21.01,3.73-.64.18-1.4-.05-2.11-.09-.11-.48-.11-1.01-.34-1.43-5.37-9.61-10.44-19.41-17.34-28.07-2.93-3.68-4.6-7.74-4.36-12.57.19-3.81.02-7.64.01-11.46.02-.34.04-.67.07-1.01.31-1.61.67-3.22.91-4.85.73-4.8,1.35-9.61,2.2-14.38.12-.68,1.26-1.18,1.93-1.76.08.13.18.16.32.09.71.34,1.43.68,2.14,1.02,0,0-.04-.02-.04-.02.52.32,1.03.65,1.55.97,0,0-.01,0-.01,0,1.68.99,3.35,1.97,5.03,2.96.05.13.13.17.26.1,3.62,2.39,7.18,4.9,11.27,6.31.13-.22.25-.45.38-.67l-10.96-13.12s-.02-.07-.02-.07c-.97-1.19-1.94-2.38-2.9-3.57,0,0,.01.02.01.02-1.36-1.62-2.72-3.24-4.08-4.86,0,0-.05-.08-.05-.08-.32-.67-.65-1.34-.97-2.01,0-.35,0-.69,0-1.04.66-2.17,1.31-4.33,1.97-6.5,0,0,.02-.13.02-.13.66-1.62,1.32-3.24,1.99-4.87,0,0,.02-.1.02-.1.34-.8.67-1.6,1.01-2.4,0,0,.02-.04.02-.04.34-.81.67-1.63,1.01-2.44,0,0,0-.02,0-.02.31-.66.62-1.33.93-1.99,0,0,.02-.12.02-.12.66-1.29,1.32-2.57,1.97-3.86,3.62-6.96,7.76-13.57,13.17-19.28,3.33-3.52,7.23-6.26,12.08-7.24,6.11-1.22,11.31,1.15,15.73,4.93,3.95,3.38,7.37,7.37,11.03,11.1.35.48.7.97,1.04,1.45,0,0,0,.03,0,.03.66.99,1.33,1.99,1.99,2.98,0,0,0,.02,0,.02.32.52.63,1.03.95,1.55,0,0-.02-.03-.02-.03.35.65.71,1.29,1.06,1.94,0,0,.02.03.02.03,0,.08-.02.18.02.25,7.02,12.73,11.73,26.31,14.76,40.48.5,2.34.2,4.85.27,7.29,0,0-.06.07-.06.07-6.18,2.82-21.14,12.66-21.81,14.48.53,0,1.01.1,1.44-.01,6.65-1.73,13.31-3.45,19.94-5.24,1.65-.45,2.54-.19,2.59,1.74.09,3.82.41,7.63.39,11.45-.03,4.81-.3,9.62-.46,14.43-.04.68-.08,1.35-.12,2.03-.23.61-.58,1.2-.65,1.82-.48,4.03-.81,8.07-1.38,12.08-.36,2.52-1,5-1.59,7.48-.8,3.36-1.66,6.71-2.5,10.06Z"/>
  <path class="cls-2" d="M301.38,282.56l-.13.14.1-.14v-.02s.02.01.03.02Z"/>
  <path class="cls-2" d="M302.92,284.13l-.17.12.16-.14s.01.02.01.02Z"/>
  <path class="cls-2" d="M476.76,379.61c-.67-3.15-1.35-6.31-2.02-9.46-2.24-10.4-6.35-20.02-12.07-28.96-7.4-11.56-16.75-21.11-28.37-28.34,11.95-13.93,19.18-32.05,19.18-51.85,0-29.15-15.66-54.64-39.02-68.53-.36-.22-.73-.43-1.09-.63-3.65-2.1-7.47-3.91-11.45-5.4-1.02-2.04-.43-4.69,1.77-7.96,1.1-1.64,2.24-3.25,3.64-5.27-3.58-.45-6.17.98-8.57,2.82-2.42,1.85-4.72,3.86-6.75,5.53-.66-3.7.88-7.93,3.27-11.65,2.34-3.66,5.48-6.81,8.8-10.82-2.99.59-5.53.92-7.97,1.59-9.44,2.58-16.07,8.48-19.48,17.63-.5,1.35-1.14,2.33-1.93,3.03-.3-.01-.59-.01-.89-.01-44,0-79.67,35.67-79.67,79.67,0,6.9.88,13.59,2.53,19.97.07.3.15.6.23.89,3.13,11.56,8.8,22.08,16.37,30.92-.25.17-.5.34-.75.5-9.13,5.94-16.93,13.28-23.53,21.94-5.57,7.32-10.18,15.2-13.1,23.91-1.76,5.25-2.8,10.74-4.17,16.12-.21.79-.48,1.57-.72,2.36-.02,1.41.03,2.82-.08,4.22-1.13,14.54,1.02,28.53,7.05,41.85,9.81,21.7,25.84,37.22,47.19,47.47.95.46,1.82,1.1,2.73,1.65,1.42-4.31,2.89-8.61,4.25-12.94.57-1.84,1.69-2.57,3.52-2.22,4.62.89,9.25,1.78,13.85,2.77,1.77.38,1.59,1.56,1.22,3.08-1.32,5.37-2.42,10.8-3.61,16.2,3.33.49,6.66.98,9.99,1.47.34.03.67.06,1.01.09,1.33.15,2.66.29,3.98.43.51.03,1.01.07,1.51.1,11.66.52,23.26.07,34.76-2.11.66-.12,1.48.63,2.23.97-.64-3.15-1.26-6.3-1.91-9.45-.6-2.99-1.31-5.97-1.77-8.98-.09-.57.64-1.74,1.17-1.87,4.74-1.14,9.52-2.08,14.28-3.12,1.69-.37,2.21.73,2.64,1.95,1.55,4.45,3.08,8.9,4.62,13.36,6.66-3.72,13.68-6.93,19.88-11.3,5.1-3.59,9.49-8.32,13.75-12.95,11.31-12.3,19.06-26.54,22.17-43.09,1.58-8.45,1.83-17,1.33-25.58ZM301.25,282.7l.1-.14v-.02s.02.01.03.02l-.13.14ZM302.75,284.25l.16-.14s.01.02.01.02l-.17.12ZM399.45,336.45c2.26-.76,4.46-1.63,6.62-2.59-1.88,2.13-4.28,2.89-6.62,2.59Z"/>
  <g>
    <path d="M346.9,267.15c-8.38.02-15.06-6.81-15.02-15.36.04-8.17,6.75-14.78,15.03-14.8,8.63-.02,15.14,6.43,15.21,15.07.07,8.51-6.54,15.07-15.21,15.09ZM344.44,248.85c-.04,3.26,3.05,6.48,6.29,6.56,3.51.08,6.69-3.03,6.78-6.65.08-3.29-3.19-6.53-6.6-6.53-3.45,0-6.42,3.05-6.47,6.63Z"/>
    <g>
      <path class="cls-5" d="M404.97,273.04c-3.09-.41-7.77-.61-12.24-1.72-5.89-1.46-9.52-5.55-10.68-11.6-1.94-10.1-.28-19.54,5.55-28.09,7.89-11.6,23.05-13.03,32.75-2.95,8.55,8.88,11.33,19.75,9.67,31.74-.85,6.12-4.88,9.75-10.84,10.9-4.15.8-8.41,1.04-14.22,1.71ZM401.83,267.13c8.29-.02,15.39-6.82,15.44-14.81.05-8.46-6.88-15.39-15.37-15.35-8.45.04-14.87,6.7-14.87,15.44,0,8.02,6.75,14.74,14.81,14.72Z"/>
      <path d="M401.83,267.13c-8.06.02-14.82-6.7-14.81-14.72,0-8.74,6.42-15.4,14.87-15.44,8.49-.04,15.43,6.89,15.37,15.35-.05,7.99-7.14,14.8-15.44,14.81ZM412.43,248.92c.08-3.52-2.77-6.55-6.3-6.69-3.55-.15-6.6,2.9-6.63,6.64-.03,3.33,2.75,6.28,6.03,6.41,3.68.14,6.81-2.75,6.9-6.35Z"/>
      <path class="cls-3" d="M375.05,273.9c6.75-.44,11.84,2.43,16.74,6.6,3.43,2.93,5.42,5.9,4.79,10.41-.61,4.39-1.83,8.53-4.24,12.33-1.59,2.51-2.85,5.23-4.26,7.85-.27.51-.51,1.08-.92,1.46-3.28,3.04-6.58,6.08-9.96,9.02-.37.32-1.64.26-1.98-.11-6.07-6.51-13.91-10.7-20.83-16.09-2.41-1.88-4.68-4.29-6.17-6.93-2.87-5.07,1.06-11.6,4.4-14.09,1.19-.88,2.57-1.49,3.87-2.23,2.88-1.64,5.87-3.11,8.6-4.95,3.11-2.1,6.21-3.86,9.96-3.26Z"/>
      <path class="cls-5" d="M341.99,272.88c-4.06-.7-9.21-1.23-14.16-2.52-4.88-1.27-7.75-5.17-8.34-9.96-1.42-11.65,1.03-22.39,9.24-31.24,6.92-7.46,17.6-9.6,25.17-4.85,7.71,4.84,12.24,12.05,13.93,20.99,1.09,5.76.55,11.49-1.11,17.03-1.85,6.17-6.83,8.8-12.72,9.74-3.59.57-7.28.51-12.02.81ZM346.9,267.15c8.67-.02,15.28-6.58,15.21-15.09-.07-8.64-6.58-15.09-15.21-15.07-8.28.02-14.99,6.64-15.03,14.8-.04,8.55,6.64,15.38,15.02,15.36Z"/>
      <path class="cls-1" d="M407.46,291.87c-.45,2.99-.88,5.98-1.36,8.96-.78,4.83,1.17,8.91,3.09,13.15,1.24,2.74,2.38,5.56,1.24,9.1-.81,2.5-1.37,5.13-2.42,7.61-3.27,7.74-10.73,7.03-14.75,2.2-3.17-3.81-5.65-8.05-5.12-13.33.13-1.27.69-2.49.96-3.75,1.02-4.85,3.23-9.1,5.97-13.23,1.51-2.28,2.12-5.2,2.97-7.87.49-1.54.79-3.16.96-4.76.37-3.34-1.36-5.94-3.2-8.5-.61-.85-.99-1.88-1.47-2.83,1.1-.42,2.18-1.17,3.3-1.21,6.25-.2,9.15,2.59,9.41,8.93.08,1.83.01,3.66.01,5.49.13.02.27.04.4.06Z"/>
      <path class="cls-5" d="M412.43,248.92c-.08,3.61-3.22,6.49-6.9,6.35-3.28-.13-6.06-3.08-6.03-6.41.03-3.73,3.07-6.78,6.63-6.64,3.53.15,6.38,3.18,6.3,6.69Z"/>
      <path class="cls-5" d="M344.44,248.85c.04-3.58,3.02-6.62,6.47-6.63,3.41,0,6.68,3.24,6.6,6.53-.09,3.62-3.27,6.74-6.78,6.65-3.24-.08-6.33-3.29-6.29-6.56Z"/>
    </g>
  </g>
</svg>