<svg fill="#000000" xmlns="http://www.w3.org/2000/svg"  viewBox="0 0 48 48" width="24px" height="24px"><path d="M 23.970703 3.9726562 A 2.0002 2.0002 0 0 0 22 6 L 22 30.171875 L 18.414062 26.585938 A 2.0002 2.0002 0 1 0 15.585938 29.414062 L 22.585938 36.414062 A 2.0002 2.0002 0 0 0 25.414062 36.414062 L 32.414062 29.414062 A 2.0002 2.0002 0 1 0 29.585938 26.585938 L 26 30.171875 L 26 6 A 2.0002 2.0002 0 0 0 23.970703 3.9726562 z M 12.744141 29.402344 C 8.2481406 30.676344 5 32.845 5 36 C 5 41.497 14.849 44 24 44 C 33.151 44 43 41.497 43 36 C 43 32.845 39.751859 30.677344 35.255859 29.402344 L 31.933594 32.722656 C 36.559594 33.643656 39 35.21 39 36 C 39 37.161 33.744 40 24 40 C 14.256 40 9 37.161 9 36 C 9 35.21 11.440406 33.644609 16.066406 32.724609 L 12.744141 29.402344 z"/></svg>