<?xml version="1.0" encoding="UTF-8"?>
<svg xmlns="http://www.w3.org/2000/svg" version="1.1" viewBox="0 0 512 512">
  <!-- Generator: Adobe Illustrator 28.6.0, SVG Export Plug-In . SVG Version: 1.2.0 Build 709)  -->
  <g>
    <g id="Capa_1">
      <path d="M0,159.4c0,24.4,9.5,47.4,26.8,64.6l10.6,10.6,27-27,98.2,98.3c-13.2,17.6-20.3,39-20.3,61.4s10.7,53.3,30.1,72.7l49.1,49,98.1-98.1,121,121h71.3s0-71.4,0-71.4l-121-121,98.1-98.1-49.1-49c-36.5-36.5-93.8-39.8-134.1-9.8l-98.3-98.3,27-27-10.6-10.6c-35.6-35.6-93.6-35.6-129.3,0L26.8,94.8C9.5,112,0,135,0,159.4Z"/>
    </g>
  </g>
</svg>