<?xml version="1.0" encoding="iso-8859-1"?>
<!-- Generator: Adobe Illustrator 19.0.0, SVG Export Plug-In . SVG Version: 6.00 Build 0)  -->
<svg version="1.1" id="Capa_1" xmlns="http://www.w3.org/2000/svg" xmlns:xlink="http://www.w3.org/1999/xlink" x="0px" y="0px"
	 viewBox="0 0 512 512" style="enable-background:new 0 0 512 512;" xml:space="preserve">
<g>
	<g>
		<path d="M485.229,94.786l-68.037-68.038c-35.638-35.636-93.624-35.636-129.261,0l-10.607,10.606l27.012,27.012l-98.263,98.263
			c-40.25-29.953-97.596-26.675-134.103,9.835l-49.051,49.051l98.096,98.096L0,440.627v71.351h71.352l121.015-121.015l98.096,98.095
			l49.051-49.05c19.43-19.43,30.13-45.264,30.13-72.741c0-22.411-7.119-43.73-20.287-61.371l98.255-98.255l27.012,27.012
			l10.606-10.606C502.493,206.783,512,183.83,512,159.416S502.493,112.049,485.229,94.786z M58.925,481.977H30v-28.925
			l112.228-112.228l28.925,28.925L58.925,481.977z M307.692,305.132l10.607,10.606c13.764,13.764,21.343,32.063,21.343,51.527
			c0,19.465-7.58,37.765-21.343,51.528l-27.837,27.837L65.346,221.515l27.837-27.838c28.412-28.412,74.642-28.412,103.055,0
			l10.606,10.606L325.55,85.58l100.848,100.848L307.692,305.132z M473.325,190.929L321.061,38.666
			c23.575-14.087,54.634-10.987,74.918,9.296l68.037,68.038C475.613,127.596,482,143.015,482,159.416
			C482,170.692,478.981,181.505,473.325,190.929z"/>
	</g>
</g>
<g>
</g>
<g>
</g>
<g>
</g>
<g>
</g>
<g>
</g>
<g>
</g>
<g>
</g>
<g>
</g>
<g>
</g>
<g>
</g>
<g>
</g>
<g>
</g>
<g>
</g>
<g>
</g>
<g>
</g>
</svg>
